HIERARCHY
ROOT Hips
{
	OFFSET 0.000000 0.000000 0.000000
	CHANNELS 6 Xposition Yposition Zposition Zrotation Yrotation Xrotation 
	JOINT LHipJoint
	{
		OFFSET 0.000000 0.000000 0.000000
		CHANNELS 3 Zrotation Yrotation Xrotation
		JOINT LeftUpLeg
		{
			OFFSET 1.363060 -1.794630 0.839290
			CHANNELS 3 Zrotation Yrotation Xrotation
			JOINT LeftLeg
			{
				OFFSET 2.448110 -6.726130 0.000000
				CHANNELS 3 Zrotation Yrotation Xrotation
				JOINT LeftFoot
				{
					OFFSET 2.562200 -7.039590 0.000000
					CHANNELS 3 Zrotation Yrotation Xrotation
					JOINT LeftToeBase
					{
						OFFSET 0.157640 -0.433110 2.322550
						CHANNELS 3 Zrotation Yrotation Xrotation
						End Site
						{
							OFFSET 0.000000 0.000000 0.000000
						}
					}
				}
			}
		}
	}
	JOINT RHipJoint
	{
		OFFSET 0.000000 0.000000 0.000000
		CHANNELS 3 Zrotation Yrotation Xrotation
		JOINT RightUpLeg
		{
			OFFSET -1.305520 -1.794630 0.839290
			CHANNELS 3 Zrotation Yrotation Xrotation
			JOINT RightLeg
			{
				OFFSET -2.542530 -6.985550 0.000000
				CHANNELS 3 Zrotation Yrotation Xrotation
				JOINT RightFoot
				{
					OFFSET -2.568260 -7.056230 0.000000
					CHANNELS 3 Zrotation Yrotation Xrotation
					JOINT RightToeBase
					{
						OFFSET -0.164730 -0.452590 2.363150
						CHANNELS 3 Zrotation Yrotation Xrotation
						End Site
						{
							OFFSET 0.000000 0.000000 0.000000
						}
					}
				}
			}
		}
	}
	JOINT LowerBack
	{
		OFFSET 0.000000 0.000000 0.000000
		CHANNELS 3 Zrotation Yrotation Xrotation
		JOINT Spine
		{
			OFFSET 0.028270 2.035590 -0.193380
			CHANNELS 3 Zrotation Yrotation Xrotation
			JOINT Spine1
			{
				OFFSET 0.056720 2.048850 -0.042750
				CHANNELS 3 Zrotation Yrotation Xrotation
				JOINT Neck
				{
					OFFSET 0.000000 0.000000 0.000000
					CHANNELS 3 Zrotation Yrotation Xrotation
					JOINT Neck1
					{
						OFFSET -0.054170 1.746240 0.172020
						CHANNELS 3 Zrotation Yrotation Xrotation
						JOINT Head
						{
							OFFSET 0.104070 1.761360 -0.123970
							CHANNELS 3 Zrotation Yrotation Xrotation
							End Site
							{
								OFFSET 0.000000 0.000000 0.000000
							}
						}
					}
				}
				JOINT LeftShoulder
				{
					OFFSET 0.000000 0.000000 0.000000
					CHANNELS 3 Zrotation Yrotation Xrotation
					JOINT LeftArm
					{
						OFFSET 3.362410 1.200890 -0.311210
						CHANNELS 3 Zrotation Yrotation Xrotation
						JOINT LeftForeArm
						{
							OFFSET 4.983000 -0.000000 -0.000000
							CHANNELS 3 Zrotation Yrotation Xrotation
							JOINT LeftHand
							{
								OFFSET 3.483560 -0.000000 -0.000000
								CHANNELS 3 Zrotation Yrotation Xrotation
								JOINT LeftFingerBase
								{
									OFFSET 0.000000 0.000000 0.000000
									CHANNELS 3 Zrotation Yrotation Xrotation
									JOINT LeftHandIndex1
									{
										OFFSET 0.715260 -0.000000 -0.000000
										CHANNELS 3 Zrotation Yrotation Xrotation
										End Site
										{
											OFFSET 0.000000 0.000000 0.000000
										}
									}
								}
								JOINT LThumb
								{
									OFFSET 0.000000 0.000000 0.000000
									CHANNELS 3 Zrotation Yrotation Xrotation
									End Site
									{
										OFFSET 0.000000 0.000000 0.000000
									}
								}
							}
						}
					}
				}
				JOINT RightShoulder
				{
					OFFSET 0.000000 0.000000 0.000000
					CHANNELS 3 Zrotation Yrotation Xrotation
					JOINT RightArm
					{
						OFFSET -3.136600 1.374050 -0.404650
						CHANNELS 3 Zrotation Yrotation Xrotation
						JOINT RightForeArm
						{
							OFFSET -5.241900 -0.000000 -0.000000
							CHANNELS 3 Zrotation Yrotation Xrotation
							JOINT RightHand
							{
								OFFSET -3.444170 -0.000000 -0.000000
								CHANNELS 3 Zrotation Yrotation Xrotation
								JOINT RightFingerBase
								{
									OFFSET 0.000000 0.000000 0.000000
									CHANNELS 3 Zrotation Yrotation Xrotation
									JOINT RightHandIndex1
									{
										OFFSET -0.622530 -0.000000 -0.000000
										CHANNELS 3 Zrotation Yrotation Xrotation
										End Site
										{
											OFFSET 0.000000 0.000000 0.000000
										}
									}
								}
								JOINT RThumb
								{
									OFFSET 0.000000 0.000000 0.000000
									CHANNELS 3 Zrotation Yrotation Xrotation
									End Site
									{
										OFFSET 0.000000 0.000000 0.000000
									}
								}
							}
						}
					}
				}
			}
		}
	}
}
MOTION
Frames: 12
Frame Time: 0.016667
0.091708 18.069291 0.091708 -0.782823 -13.335157 4.132782 -5.261608 22.797505 7.118184 -16.110853 -5.058740 -17.030299 -7.641989 -6.475852 -23.277732 2.408625 16.476426 35.497897 0.000000 0.000000 0.000000 0.577056 -37.223884 -3.411140 48.926441 24.007287 -8.872864 -22.618048 9.301522 42.555244 -4.502794 19.430481 -22.207141 0.000000 0.000000 0.000000 3.092206 4.579180 2.780990 -3.126541 3.809517 20.619238 -0.106546 3.906937 -16.809153 5.165352 -0.867895 -8.548679 -1.275199 -0.142636 0.135715 0.000000 0.000000 0.000000 -2.566191 14.775163 9.376449 -69.074900 -5.965391 8.562511 -167.788983 -89.110556 -179.641806 4.181151 -10.070596 0.177343 4.197997 -10.063690 0.000000 0.000000 0.000000 0.000000 0.000000 0.000000 0.000000 -1.808912 -12.157004 6.883225 63.707613 3.334301 22.327551 13.960981 80.257148 0.347129 -1.223713 11.111199 0.171414 -1.243635 11.112779 0.000000 0.000000 0.000000 0.000000 0.000000 0.000000 0.000000 
0.100190 18.099031 0.249713 -0.573326 -13.376797 4.143699 -5.001976 22.875629 7.049751 -16.703996 -5.075708 -16.690356 -7.480532 -6.152166 -22.167321 2.038724 15.504475 33.309190 0.000000 0.000000 0.000000 0.273997 -37.023468 -2.999802 48.107347 24.234938 -9.324446 -22.007943 8.913573 43.190266 -4.480416 19.447477 -22.872098 0.000000 0.000000 0.000000 3.366650 4.558774 2.281926 -3.991978 3.835267 21.350803 0.144714 3.764476 -16.335584 5.441334 -0.846510 -8.997262 -1.203884 -0.123748 -0.246138 0.000000 0.000000 0.000000 -1.922926 14.516400 9.129599 -69.328109 -6.502864 7.974093 -167.426998 -88.956539 -179.682717 4.481830 -10.259201 0.156440 4.505160 -10.249412 0.000000 0.000000 0.000000 0.000000 0.000000 0.000000 0.000000 -2.522787 -11.837471 7.009355 64.750535 3.984241 21.437056 15.777926 78.419727 0.367765 -1.023898 11.594110 0.181599 -1.043830 11.596381 0.000000 0.000000 0.000000 0.000000 0.000000 0.000000 0.000000 
0.110912 18.130591 0.407134 -0.372541 -13.402738 4.163520 -4.781913 22.938581 6.963916 -17.245826 -5.097944 -16.394415 -7.329444 -5.799058 -20.991078 1.709091 14.543922 31.148790 0.000000 0.000000 0.000000 -0.004603 -36.788188 -2.578042 47.235543 24.460154 -9.818387 -21.390516 8.514359 43.783399 -4.446830 19.450506 -23.479320 0.000000 0.000000 0.000000 3.649294 4.534964 1.788663 -4.843182 3.862897 22.042221 0.377298 3.615715 -15.849773 5.714077 -0.822526 -9.423677 -1.124699 -0.103686 -0.621305 0.000000 0.000000 0.000000 -1.264151 14.263013 8.887329 -69.558264 -7.031050 7.378410 -167.064952 -88.807391 -179.725096 4.786667 -10.441485 0.134771 4.816771 -10.428610 0.000000 0.000000 0.000000 0.000000 0.000000 0.000000 0.000000 -3.265138 -11.533880 7.120895 65.809116 4.658743 20.449104 17.637672 76.451825 0.388767 -0.812623 12.071790 0.191985 -0.832173 12.074777 0.000000 0.000000 0.000000 0.000000 0.000000 0.000000 0.000000 
0.122560 18.162615 0.562293 -0.300611 -13.017259 3.994944 -4.154087 23.140483 6.842754 -17.983457 -5.278196 -16.079433 -7.408638 -5.282039 -18.993885 1.357281 13.227913 28.528441 0.000000 0.000000 0.000000 -0.773428 -36.458140 -2.543741 46.571516 23.707918 -9.479092 -20.287407 7.749055 43.615270 -4.315135 19.402462 -24.381935 0.000000 0.000000 0.000000 3.897189 4.411243 1.637409 -5.151400 3.759490 22.586411 0.286957 3.418595 -15.744612 5.831851 -0.783607 -9.641914 -0.966059 -0.082315 -0.797522 0.000000 0.000000 0.000000 -1.048270 14.172008 8.730748 -69.572767 -7.231965 7.283382 -166.936109 -88.774193 -179.730072 4.833691 -10.446958 0.132235 4.864499 -10.433687 0.000000 0.000000 0.000000 0.000000 0.000000 0.000000 0.000000 -3.733604 -11.555329 7.222792 66.542658 5.001637 19.691865 19.066451 74.807462 0.402696 -0.636710 12.382402 0.198911 -0.655424 12.385932 0.000000 0.000000 0.000000 0.000000 0.000000 0.000000 0.000000 
0.135830 18.195598 0.716090 -0.248624 -12.579136 3.827956 -3.577289 23.322415 6.706628 -18.646277 -5.480489 -15.825639 -7.461318 -4.727574 -16.904549 1.051102 11.940978 25.991254 0.000000 0.000000 0.000000 -1.524621 -36.045411 -2.510431 45.851766 22.922319 -9.142689 -19.128767 6.945838 43.363116 -4.168327 19.322963 -25.243997 0.000000 0.000000 0.000000 4.160720 4.267578 1.488450 -5.438510 3.638082 23.123438 0.186906 3.206083 -15.639634 5.946207 -0.744328 -9.854907 -0.806909 -0.060581 -0.967717 0.000000 0.000000 0.000000 -0.830585 14.077776 8.577997 -69.583008 -7.428064 7.190255 -166.810667 -88.741823 -179.734893 4.879221 -10.451446 0.129777 4.910709 -10.437790 0.000000 0.000000 0.000000 0.000000 0.000000 0.000000 0.000000 -4.212464 -11.591675 7.317655 67.280219 5.361087 18.869414 20.485801 73.073349 0.415988 -0.460592 12.682687 0.205536 -0.478273 12.686726 0.000000 0.000000 0.000000 0.000000 0.000000 0.000000 0.000000 
0.185672 18.253921 0.903873 -0.138565 -12.557500 3.967404 -4.156314 23.228679 6.894697 -18.358785 -5.630628 -16.130935 -7.194480 -4.358993 -15.862120 0.829105 11.215953 24.206029 0.000000 0.000000 0.000000 -2.315403 -35.599362 -1.761857 44.705374 22.852947 -9.736380 -17.655503 6.215721 43.151226 -4.168610 19.483149 -25.757890 0.000000 0.000000 0.000000 5.691200 4.552740 0.496085 -7.285362 3.980358 24.620191 0.390182 3.030836 -16.042315 5.462528 -0.622409 -9.265410 -0.383965 -0.010132 -1.072188 0.000000 0.000000 0.000000 -0.806506 13.822257 8.545796 -69.307213 -7.422187 8.025414 -167.717088 -89.180130 -179.728871 4.884179 -10.702434 0.132558 4.917986 -10.688189 0.000000 0.000000 0.000000 0.000000 0.000000 0.000000 0.000000 -3.624223 -12.064928 6.949299 67.011439 5.210729 19.357675 19.711232 74.079933 0.416744 -0.566197 12.667410 0.205851 -0.584802 12.671235 0.000000 0.000000 0.000000 0.000000 0.000000 0.000000 0.000000 
0.237474 18.312714 1.090788 -0.032658 -12.502772 4.137829 -4.811368 23.094311 7.068565 -17.985464 -5.788086 -16.499920 -6.947693 -3.977095 -14.807098 0.635525 10.532131 22.504628 0.000000 0.000000 0.000000 -3.023832 -35.099344 -1.014126 43.450823 22.796299 -10.413159 -16.135305 5.474931 42.884986 -4.136404 19.607863 -26.214878 0.000000 0.000000 0.000000 7.205563 4.859069 -0.450709 -9.078051 4.337025 25.938125 0.594011 2.845055 -16.364294 4.982751 -0.505801 -8.637076 0.017987 0.034701 -1.106005 0.000000 0.000000 0.000000 -0.776135 13.550511 8.539475 -69.037922 -7.406161 8.869200 -168.656891 -89.637973 -179.722842 4.883978 -10.959187 0.135324 4.920249 -10.944362 0.000000 0.000000 0.000000 0.000000 0.000000 0.000000 0.000000 -3.047625 -12.527205 6.590342 66.732258 5.049564 19.837733 18.897904 75.095119 0.416420 -0.679309 12.642998 0.205625 -0.698920 12.646563 0.000000 0.000000 0.000000 0.000000 0.000000 0.000000 0.000000 
0.287563 18.369559 1.273901 0.018311 -12.515923 4.298947 -5.530161 22.865794 7.266536 -17.464728 -5.843250 -16.788276 -6.659635 -3.687623 -14.101459 0.492535 10.011093 21.096355 0.000000 0.000000 0.000000 -3.667380 -34.558656 -0.193980 42.071665 22.699278 -11.122019 -14.414463 4.713117 42.426786 -4.111961 19.795794 -26.713822 0.000000 0.000000 0.000000 8.673937 5.175532 -1.515979 -10.712101 4.724480 27.500297 0.752373 2.670592 -16.769773 4.703675 -0.421956 -8.307030 0.297295 0.067187 -1.159296 0.000000 0.000000 0.000000 -0.769254 13.373867 8.500963 -68.869825 -7.539386 9.106566 -168.808364 -89.724703 -179.722607 4.907006 -11.023617 0.135358 4.944171 -11.008473 0.000000 0.000000 0.000000 0.000000 0.000000 0.000000 0.000000 -2.692070 -12.905711 6.330598 66.624099 4.973565 20.062747 18.532800 75.518683 0.418018 -0.737090 12.649748 0.206387 -0.757199 12.653192 0.000000 0.000000 0.000000 0.000000 0.000000 0.000000 0.000000 
0.338335 18.425895 1.455392 0.069886 -12.491657 4.478877 -6.304961 22.599684 7.451413 -16.877614 -5.896640 -17.113538 -6.396082 -3.391230 -13.391387 0.368218 9.523762 19.757130 0.000000 0.000000 0.000000 -4.221116 -33.960850 0.613565 40.570280 22.598882 -11.894957 -12.620428 3.937593 41.903733 -4.045834 19.931504 -27.163203 0.000000 0.000000 0.000000 10.102911 5.500694 -2.530631 -12.272814 5.112032 28.897618 0.900906 2.489394 -17.100113 4.432676 -0.339587 -7.956765 0.569098 0.098032 -1.196509 0.000000 0.000000 0.000000 -0.760393 13.189418 8.482078 -68.711638 -7.664004 9.329859 -168.947087 -89.807139 -179.722539 4.930216 -11.084733 0.135309 4.968264 -11.069272 0.000000 0.000000 0.000000 0.000000 0.000000 0.000000 0.000000 -2.357573 -13.272290 6.089744 66.518904 4.889804 20.277147 18.175222 75.927043 0.419383 -0.795030 12.656377 0.207031 -0.815655 12.659692 0.000000 0.000000 0.000000 0.000000 0.000000 0.000000 0.000000 
0.374941 18.471121 1.620600 0.034351 -12.460661 4.636666 -6.878363 22.179072 7.518942 -16.369152 -5.766983 -17.071115 -6.094635 -3.245387 -13.127827 0.303129 9.183194 18.741539 0.000000 0.000000 0.000000 -4.530649 -33.280372 1.196079 39.127021 22.383481 -12.476722 -10.935904 3.192915 41.369601 -3.945857 19.995963 -27.677173 0.000000 0.000000 0.000000 11.008413 5.685318 -3.193925 -13.168624 5.335077 29.742940 0.958050 2.368982 -17.282826 4.314212 -0.296655 -7.782053 0.719218 0.114912 -1.216349 0.000000 0.000000 0.000000 -0.753514 13.082736 8.467105 -68.639915 -7.790978 9.288934 -168.802684 -89.746424 -179.724178 4.950288 -11.062483 0.134494 4.988360 -11.046916 0.000000 0.000000 0.000000 0.000000 0.000000 0.000000 0.000000 -2.236497 -13.466758 5.966305 66.557213 4.847592 20.357275 18.029069 76.117340 0.421728 -0.823051 12.694834 0.208166 -0.844018 12.698100 0.000000 0.000000 0.000000 0.000000 0.000000 0.000000 0.000000 
0.410830 18.515235 1.783522 0.008426 -12.410156 4.797359 -7.485569 21.741184 7.585846 -15.827970 -5.635027 -17.041949 -5.806144 -3.098883 -12.873062 0.247191 8.869698 17.780343 0.000000 0.000000 0.000000 -4.775131 -32.557642 1.768281 37.597067 22.157111 -13.081151 -9.189292 2.446144 40.769310 -3.820566 20.019930 -28.151642 0.000000 0.000000 0.000000 11.886582 5.853230 -3.840649 -14.038078 5.540137 30.512503 0.963192 2.240714 -17.394182 4.228441 -0.251868 -7.610660 0.887269 0.134463 -1.256550 0.000000 0.000000 0.000000 -0.711505 12.982934 8.448281 -68.563614 -7.933171 9.227079 -168.642267 -89.681424 -179.726161 4.972617 -11.037868 0.133508 5.010709 -11.022185 0.000000 0.000000 0.000000 0.000000 0.000000 0.000000 0.000000 -2.234187 -13.654115 5.861571 66.762726 4.886578 20.314183 18.270068 75.994502 0.429388 -0.801194 12.820118 0.211946 -0.822220 12.823520 0.000000 0.000000 0.000000 0.000000 0.000000 0.000000 0.000000 
0.445458 18.557730 1.943553 0.024795 -12.418302 4.955240 -8.172040 21.290225 7.672070 -15.244276 -5.472575 -17.015001 -5.512695 -2.969090 -12.728488 0.205393 8.626077 16.922125 0.000000 0.000000 0.000000 -4.867180 -31.859991 2.357190 36.024293 22.078888 -13.811877 -7.659675 1.795664 40.349653 -3.694665 20.009238 -28.514367 0.000000 0.000000 0.000000 12.723363 6.020833 -4.526362 -14.916230 5.750396 31.286040 0.897083 2.117019 -17.395902 4.215811 -0.203778 -7.511272 1.070373 0.160148 -1.377818 0.000000 0.000000 0.000000 -0.576578 12.885028 8.416614 -68.470921 -8.055687 9.330961 -168.733152 -89.747103 -179.726528 4.989679 -11.080055 0.133275 5.028344 -11.064148 0.000000 0.000000 0.000000 0.000000 0.000000 0.000000 0.000000 -2.465837 -13.810759 5.786410 67.284233 5.104770 20.008155 19.229024 75.247223 0.446550 -0.687468 13.094967 0.220461 -0.707905 13.098843 0.000000 0.000000 0.000000 0.000000 0.000000 0.000000 0.000000 
